<svg xmlns="http://www.w3.org/2000/svg" id="prefix__BG_Bracon" width="784" height="784" data-name="BG Bracon" viewBox="0 0 784 784">
    <defs>
        <style>
            .prefix__cls-1{fill:none;stroke:#dcdce0;stroke-miterlimit:10;stroke-width:3px}
        </style>
    </defs>
    <path id="prefix__Line_1131" d="M0 85.85L0 0" class="prefix__cls-1" data-name="Line 1131" transform="translate(391.982)"/>
    <path id="prefix__Line_1132" d="M14.914 0L0 84.545" class="prefix__cls-1" data-name="Line 1132" transform="translate(445.149 5.922)"/>
    <path id="prefix__Line_1133" d="M29.404 0L0 80.738" class="prefix__cls-1" data-name="Line 1133" transform="translate(496.694 23.551)"/>
    <path id="prefix__Line_1134" d="M42.942 0L0 74.391" class="prefix__cls-1" data-name="Line 1134" transform="translate(545.066 52.461)"/>
    <path id="prefix__Line_1135" d="M55.141 0L0 65.718" class="prefix__cls-1" data-name="Line 1135" transform="translate(588.784 91.736)"/>
    <path id="prefix__Line_1136" d="M65.718 0L0 55.177" class="prefix__cls-1" data-name="Line 1136" transform="translate(626.544 140.039)"/>
    <path id="prefix__Line_1137" d="M74.391 0L0 42.942" class="prefix__cls-1" data-name="Line 1137" transform="translate(657.147 195.99)"/>
    <path id="prefix__Line_1138" d="M80.738 0L0 29.369" class="prefix__cls-1" data-name="Line 1138" transform="translate(679.712 257.9)"/>
    <path id="prefix__Line_1139" d="M84.58 0L0 14.914" class="prefix__cls-1" data-name="Line 1139" transform="translate(693.496 323.938)"/>
    <path id="prefix__Line_1140" d="M85.85 0L0 0" class="prefix__cls-1" data-name="Line 1140" transform="translate(698.15 392.018)"/>
    <path id="prefix__Line_1141" d="M84.58 14.914L0 0" class="prefix__cls-1" data-name="Line 1141" transform="translate(693.496 445.148)"/>
    <path id="prefix__Line_1142" d="M80.738 29.369L0 0" class="prefix__cls-1" data-name="Line 1142" transform="translate(679.712 496.729)"/>
    <path id="prefix__Line_1143" d="M74.391 42.942L0 0" class="prefix__cls-1" data-name="Line 1143" transform="translate(657.147 545.066)"/>
    <path id="prefix__Line_1144" d="M65.718 55.177L0 0" class="prefix__cls-1" data-name="Line 1144" transform="translate(626.544 588.783)"/>
    <path id="prefix__Line_1145" d="M55.141 65.718L0 0" class="prefix__cls-1" data-name="Line 1145" transform="translate(588.784 626.543)"/>
    <path id="prefix__Line_1146" d="M42.942 74.391L0 0" class="prefix__cls-1" data-name="Line 1146" transform="translate(545.066 657.146)"/>
    <path id="prefix__Line_1147" d="M29.404 80.738L0 0" class="prefix__cls-1" data-name="Line 1147" transform="translate(496.694 679.711)"/>
    <path id="prefix__Line_1148" d="M14.914 84.545L0 0" class="prefix__cls-1" data-name="Line 1148" transform="translate(445.149 693.531)"/>
    <path id="prefix__Line_1149" d="M0 85.85L0 0" class="prefix__cls-1" data-name="Line 1149" transform="translate(391.982 698.15)"/>
    <path id="prefix__Line_1150" d="M14.914 0L0 84.545" class="prefix__cls-1" data-name="Line 1150" transform="translate(323.902 693.531)"/>
    <path id="prefix__Line_1151" d="M29.369 0L0 80.738" class="prefix__cls-1" data-name="Line 1151" transform="translate(257.901 679.711)"/>
    <path id="prefix__Line_1152" d="M42.942 0L0 74.391" class="prefix__cls-1" data-name="Line 1152" transform="translate(195.956 657.146)"/>
    <path id="prefix__Line_1153" d="M55.141 0L0 65.718" class="prefix__cls-1" data-name="Line 1153" transform="translate(140.039 626.543)"/>
    <path id="prefix__Line_1154" d="M65.718 0L0 55.141" class="prefix__cls-1" data-name="Line 1154" transform="translate(91.737 588.783)"/>
    <path id="prefix__Line_1155" d="M74.391 0L0 42.942" class="prefix__cls-1" data-name="Line 1155" transform="translate(52.462 545.066)"/>
    <path id="prefix__Line_1156" d="M80.738 0L0 29.369" class="prefix__cls-1" data-name="Line 1156" transform="translate(23.552 496.729)"/>
    <path id="prefix__Line_1157" d="M84.545 0L0 14.914" class="prefix__cls-1" data-name="Line 1157" transform="translate(5.924 445.148)"/>
    <path id="prefix__Line_1158" d="M85.814 0L0 0" class="prefix__cls-1" data-name="Line 1158" transform="translate(0 392.018)"/>
    <path id="prefix__Line_1159" d="M84.545 14.914L0 0" class="prefix__cls-1" data-name="Line 1159" transform="translate(5.924 323.938)"/>
    <path id="prefix__Line_1160" d="M80.738 29.369L0 0" class="prefix__cls-1" data-name="Line 1160" transform="translate(23.552 257.9)"/>
    <path id="prefix__Line_1161" d="M74.391 42.942L0 0" class="prefix__cls-1" data-name="Line 1161" transform="translate(52.462 195.99)"/>
    <path id="prefix__Line_1162" d="M65.718 55.141L0 0" class="prefix__cls-1" data-name="Line 1162" transform="translate(91.737 140.074)"/>
    <path id="prefix__Line_1163" d="M55.141 65.718L0 0" class="prefix__cls-1" data-name="Line 1163" transform="translate(140.039 91.736)"/>
    <path id="prefix__Line_1164" d="M42.942 74.391L0 0" class="prefix__cls-1" data-name="Line 1164" transform="translate(195.956 52.461)"/>
    <path id="prefix__Line_1165" d="M29.369 80.738L0 0" class="prefix__cls-1" data-name="Line 1165" transform="translate(257.901 23.551)"/>
    <path id="prefix__Line_1166" d="M14.914 84.545L0 0" class="prefix__cls-1" data-name="Line 1166" transform="translate(323.902 5.922)"/>
</svg>
