<svg xmlns="http://www.w3.org/2000/svg" width="13.558" height="13.789" viewBox="0 0 13.558 13.789">
  <g id="Facebook" transform="translate(-4719 -3958)">
    <path id="Path_1" d="M12.809,0H.748A.754.754,0,0,0,0,.76V13.023a.754.754,0,0,0,.748.76H7.242V8.446H5.482V6.359h1.76V4.831A2.488,2.488,0,0,1,9.881,2.082a14.756,14.756,0,0,1,1.578.08V4.025H10.368c-.849,0-1.013.41-1.013,1.012V6.365h2.026l-.264,2.087H9.358v5.337H12.81a.754.754,0,0,0,.748-.76V.76A.754.754,0,0,0,12.809,0Z" transform="translate(4719 3958)"/>
  </g>
</svg>
