<svg id="Instagram" xmlns="http://www.w3.org/2000/svg" width="13.556" height="13.788" viewBox="0 0 13.556 13.788">
  <path id="Path_2" d="M13.522,4.051a5.072,5.072,0,0,0-.315-1.672,3.359,3.359,0,0,0-.784-1.222,3.327,3.327,0,0,0-1.2-.8A4.922,4.922,0,0,0,9.575.043C8.85.008,8.619,0,6.779,0S4.708.008,3.985.04A4.914,4.914,0,0,0,2.341.36a3.329,3.329,0,0,0-1.2.8A3.406,3.406,0,0,0,.357,2.377,5.161,5.161,0,0,0,.042,4.049C.008,4.787,0,5.021,0,6.892S.008,9,.039,9.732A5.136,5.136,0,0,0,.354,11.41a3.507,3.507,0,0,0,1.984,2.01,4.861,4.861,0,0,0,1.644.327c.723.033.953.041,2.794.041s2.072-.008,2.794-.041a4.839,4.839,0,0,0,1.644-.32A3.491,3.491,0,0,0,13.2,11.41a5.081,5.081,0,0,0,.315-1.672c.032-.734.041-.969.041-2.84S13.551,4.787,13.522,4.051ZM12.305,9.678a3.793,3.793,0,0,1-.233,1.279,2.264,2.264,0,0,1-1.287,1.309,3.638,3.638,0,0,1-1.258.236c-.715.033-.929.041-2.738.041s-2.028-.008-2.738-.041a3.63,3.63,0,0,1-1.258-.236,2.094,2.094,0,0,1-.779-.514,2.165,2.165,0,0,1-.506-.792,3.881,3.881,0,0,1-.233-1.279c-.031-.727-.039-.944-.039-2.784s.008-2.062.039-2.784a3.873,3.873,0,0,1,.233-1.279,2.126,2.126,0,0,1,.508-.792A2.133,2.133,0,0,1,2.8,1.529a3.714,3.714,0,0,1,1.258-.236c.715-.032.93-.04,2.738-.04s2.028.008,2.738.04a3.691,3.691,0,0,1,1.258.236,2.1,2.1,0,0,1,.779.514,2.158,2.158,0,0,1,.506.792,3.817,3.817,0,0,1,.233,1.279c.032.727.041.946.041,2.784s-.021,2.053-.051,2.78Z"/>
  <path id="Path_3" d="M27.862,24.38a3.54,3.54,0,1,0,3.482,3.54,3.54,3.54,0,0,0-3.482-3.54Zm0,5.837a2.3,2.3,0,1,1,2.26-2.3,2.3,2.3,0,0,1-2.26,2.3Z" transform="translate(-21.083 -21.028)"/>
  <path id="Path_4" d="M72.543,18.185a.811.811,0,1,1-.232-.582.811.811,0,0,1,.232.582Z" transform="translate(-61.33 -14.973)"/>
</svg>
