<svg xmlns="http://www.w3.org/2000/svg" width="13.563" height="13.792" viewBox="0 0 13.563 13.792">
  <g id="LinkedIn" transform="translate(-4767 -3958)">
    <path id="Path_5" d="M0,13.143V.646A.641.641,0,0,1,.636,0H12.927a.641.641,0,0,1,.636.646v12.5a.641.641,0,0,1-.636.646H.636A.641.641,0,0,1,0,13.143ZM7.219,6.011V5.3a.138.138,0,0,0-.036-.1.134.134,0,0,0-.1-.043H5.416c-.108,0-.146.03-.146.149v6.287c0,.107.026.149.138.149H7.1c.192,0,.192,0,.192-.189V8.47a2.873,2.873,0,0,1,.122-.94A.95.95,0,0,1,8.1,6.865a1.466,1.466,0,0,1,.278-.045.882.882,0,0,1,1.04.685,3.192,3.192,0,0,1,.092.736c.01,1.108,0,2.214,0,3.322,0,.2,0,.158.284.168.5.016,1.006.009,1.509,0,.25,0,.25.027.25-.158V8.182A6.241,6.241,0,0,0,11.4,6.61a1.962,1.962,0,0,0-.978-1.34,2.514,2.514,0,0,0-.967-.255,2.279,2.279,0,0,0-1.741.478,6.308,6.308,0,0,0-.489.518ZM2.026,8.446v3.148c0,.137.045.149.267.125a5.932,5.932,0,0,1,1.444,0c.261.031.319.025.319-.134V5.313a.148.148,0,0,0-.146-.149c-.577,0-1.153.018-1.728,0-.129,0-.146.036-.146.149Q2.023,6.877,2.026,8.446ZM1.867,3.1a1.2,1.2,0,0,0,.34.849,1.162,1.162,0,0,0,.832.353,1.2,1.2,0,1,0,0-2.4,1.162,1.162,0,0,0-.83.35,1.2,1.2,0,0,0-.342.845Z" transform="translate(4767 3958)"/>
  </g>
</svg>
