<svg xmlns="http://www.w3.org/2000/svg" width="18.34" height="23.234" viewBox="0 0 18.34 23.234">
  <g id="Profile" transform="translate(-6545 -3958)">
    <path id="profile-2" d="M18.34,23.234H0V12.515H1.155V22.08H17.186V12.515H18.34V23.233Zm-8.023-3.316H3.279V18.765h7.039v1.153Zm3.947-3.809H3.279V14.955H14.265v1.154Zm-3.947-2.563H3.279V12.393h7.039v1.153ZM1.155,10.718H0V0H15.029L18.34,3.306v7.41H17.186V4.269h-3.2V1.155H1.155v9.563ZM15.142,1.745V3.114h1.369ZM4.322,8.91H3.167c0-.959,1.18-1.928,3.434-1.928s3.434.969,3.435,1.927H8.881a.269.269,0,0,0-.094-.171,3.526,3.526,0,0,0-2.186-.6c-1.339,0-2.279.5-2.279.773ZM6.589,6.539a1.938,1.938,0,0,1-.006-3.875H6.59a1.937,1.937,0,1,1,0,3.875Zm0-2.72a.782.782,0,1,0,.007,0Z" transform="translate(6545 3958)"/>
  </g>
</svg>
