<svg xmlns="http://www.w3.org/2000/svg" width="13.982" height="13.794" viewBox="0 0 13.982 13.794">
  <g id="Snapshot" transform="translate(0.003)">
    <g id="Group_1" >
      <path id="Path_6" d="M13.932,10.844c-.243-.084-.491-.153-.728-.255a4.048,4.048,0,0,1-.785-.474,4.819,4.819,0,0,1-1.184-1.38c-.068-.115-.133-.232-.193-.35-.044-.087-.169-.255-.169-.352A.826.826,0,0,1,11.3,6.874a4.439,4.439,0,0,1,.467-.2,4.009,4.009,0,0,0,.472-.186c.163-.089.441-.361.335-.6s-.343-.217-.584-.135a2.625,2.625,0,0,1-.77.149c-.446.01-.548-.138-.528-.576.031-.654.056-1.309.056-1.963A3.341,3.341,0,0,0,8.434.251,5.517,5.517,0,0,0,7.008,0H7A5.5,5.5,0,0,0,5.577.245,3.34,3.34,0,0,0,3.265,3.354c0,.655.025,1.31.055,1.963.021.438-.081.586-.526.576a2.617,2.617,0,0,1-.767-.149c-.241-.082-.484-.1-.584.135s.17.51.335.605a3.991,3.991,0,0,0,.471.186,4.223,4.223,0,0,1,.467.2A.824.824,0,0,1,3.14,8.029a4.836,4.836,0,0,1-2.5,2.627c-.175.073-.358.127-.54.183a.118.118,0,0,0-.023.212,1.851,1.851,0,0,0,.528.227c.291.073.579.157.877.215a.477.477,0,0,1,.432.4c.038.166.083.33.125.51a.115.115,0,0,0,.125.085c.093-.013.178-.023.261-.041A2.9,2.9,0,0,1,5.034,13a4.171,4.171,0,0,0,.58.394,2.788,2.788,0,0,0,1.391.4,2.789,2.789,0,0,0,1.392-.4A4.171,4.171,0,0,0,8.976,13a2.9,2.9,0,0,1,2.6-.557c.084.018.168.028.262.041a.114.114,0,0,0,.125-.085c.046-.178.09-.343.125-.51.093-.408.549-.423.886-.51a3.444,3.444,0,0,0,.976-.33.117.117,0,0,0-.024-.208Z" transform="translate(-0.024)"/>
    </g>
  </g>
</svg>
