<svg xmlns="http://www.w3.org/2000/svg" width="15.442" height="12.727" viewBox="0 0 15.442 12.727">
  <g id="Twitter" transform="translate(0 0.003)">
    <path id="Path_7" d="M14.32,1.8a2.011,2.011,0,0,1-.6.079l.011-.066A7.667,7.667,0,0,0,14.931.2L13.925.635l-.845.386A3.328,3.328,0,0,0,10.638,0,3,3,0,0,0,7.472,2.81,4.258,4.258,0,0,0,7.6,3.879a8.8,8.8,0,0,1-3.813-.832C1.753,1.983,1.223.986,1.094.633A.073.073,0,0,0,.963.621,3.806,3.806,0,0,0,.855,3.468,3.678,3.678,0,0,0,2,4.824a2.636,2.636,0,0,1-.812-.136A1.754,1.754,0,0,1,.615,4.4c-.248.615.249,1.712,1.106,2.5a4.517,4.517,0,0,0,1.413.745l-1.427.041c-.08,1.408,2.908,2.245,2.908,2.245a4.83,4.83,0,0,1-2.981,1.1A5.588,5.588,0,0,1,.008,10.79a7.7,7.7,0,0,0,5.3,1.929c5.335-.284,8.347-4.946,8.49-9.526V3.2a3.774,3.774,0,0,0,.784-.67,5.642,5.642,0,0,0,.868-1.179S14.655,1.707,14.32,1.8Z" transform="translate(-0.008 0.002)"/>
  </g>
</svg>
